<svg xmlns="http://www.w3.org/2000/svg" fill="none" viewBox="0 0 24 24" aria-hidden="true">
    <path fill="currentColor" fill-rule="evenodd"
          d="M5 2a1 1 0 0 1 1-1h12a1 1 0 0 1 1 1v7a1 1 0 1 1-2 0V3H7v6a1 1 0 0 1-2 0V2Z" clip-rule="evenodd"/>
    <path fill="currentColor" fill-rule="evenodd"
          d="M4 10a1 1 0 0 0-1 1v5a1 1 0 0 0 1 1h2a1 1 0 1 1 0 2H4a3 3 0 0 1-3-3v-5a3 3 0 0 1 3-3h16a3 3 0 0 1 3 3v5a3 3 0 0 1-3 3h-2a1 1 0 1 1 0-2h2a1 1 0 0 0 1-1v-5a1 1 0 0 0-1-1H4Z"
          clip-rule="evenodd"/>
    <path fill="currentColor" fill-rule="evenodd"
          d="M5 14a1 1 0 0 1 1-1h12a1 1 0 0 1 1 1v8a1 1 0 0 1-1 1H6a1 1 0 0 1-1-1v-8Zm2 1v6h10v-6H7Z"
          clip-rule="evenodd"/>
</svg>
