<svg xmlns="http://www.w3.org/2000/svg" fill="none" viewBox="0 0 24 20" aria-hidden="true">
    <path fill="currentColor"
          d="M10.319 2.936a7.24 7.24 0 0 1 7.1 2.252 1.25 1.25 0 0 0 1.872-1.657A9.737 9.737 0 0 0 9.743.5a10.269 10.269 0 0 0-7.365 7.11.249.249 0 0 1-.271.178l-1.033-.13a.491.491 0 0 0-.474.219.5.5 0 0 0-.019.526l2.476 4.342a.5.5 0 0 0 .373.248c.02.002.041.002.062 0a.498.498 0 0 0 .359-.152l3.477-3.593a.5.5 0 0 0-.3-.844L5.15 8.172a.25.25 0 0 1-.2-.333 7.7 7.7 0 0 1 5.369-4.903ZM23.406 12.1a.499.499 0 0 0 .015-.526l-2.5-4.329A.5.5 0 0 0 20.546 7a.49.49 0 0 0-.421.151l-3.456 3.614a.5.5 0 0 0 .3.842l1.848.221a.248.248 0 0 1 .219.222.252.252 0 0 1-.013.111 7.687 7.687 0 0 1-5.369 4.9 7.243 7.243 0 0 1-7.1-2.253 1.25 1.25 0 1 0-1.872 1.656 9.74 9.74 0 0 0 9.549 3.03 10.26 10.26 0 0 0 7.369-7.12.251.251 0 0 1 .27-.179l1.058.127a.43.43 0 0 0 .06 0 .5.5 0 0 0 .418-.222Z"/>
</svg>
