<svg width="16" height="16" viewBox="0 0 16 16" fill="none" xmlns="http://www.w3.org/2000/svg">
<path d="M1.33203 1.3336V5.50027H1.81703M1.81703 5.50027C2.37024 4.13204 3.36177 2.98602 4.63622 2.24182C5.91068 1.49761 7.39603 1.19728 8.85951 1.38788C10.323 1.57849 11.6819 2.24926 12.7232 3.29508C13.7645 4.3409 14.4294 5.70265 14.6137 7.16693M1.81703 5.50027H5.4987M14.6654 14.6669V10.5003H14.1812M14.1812 10.5003C13.6272 11.8677 12.6354 13.0128 11.3611 13.7563C10.0867 14.4999 8.60181 14.7999 7.13878 14.6093C5.67575 14.4188 4.3172 13.7485 3.27581 12.7034C2.23442 11.6582 1.56899 10.2973 1.3837 8.8336M14.1812 10.5003H10.4987" stroke="#879681" stroke-width="2" stroke-linecap="square" stroke-linejoin="round"/>
</svg>
