<svg xmlns="http://www.w3.org/2000/svg" class="inline" viewBox="0 0 20 20" aria-hidden="true">
    <path d="M4.585 12.5c.729-.004 1.43-.28 1.966-.775l5.217 2.983c-.067.23-.1.469-.1.708a2.942 2.942 0 1 0 .95-2.141L7.401 10.29c.063-.205.097-.418.1-.633l5.125-2.933a2.908 2.908 0 1 0-.958-2.142c.003.24.036.478.1.708L7.026 8a2.917 2.917 0 1 0-2.441 4.5Zm10 1.666a1.25 1.25 0 1 1 0 2.5 1.25 1.25 0 0 1 0-2.5Zm0-10.833a1.25 1.25 0 1 1 0 2.5 1.25 1.25 0 0 1 0-2.5Zm-10 5a1.25 1.25 0 1 1 0 2.5 1.25 1.25 0 0 1 0-2.5Z"></path>
</svg>
