<svg xmlns="http://www.w3.org/2000/svg" fill="none" viewBox="0 0 24 24" aria-hidden="true">
    <path fill="currentColor"
          d="M19.799 9.774a1.025 1.025 0 0 0-.957-.667h-4.144a.34.34 0 0 1-.322-.227L12.89 4.664a1.021 1.021 0 0 0-1.913 0l-.004.01L9.488 8.88a.34.34 0 0 1-.32.227H5.021a1.021 1.021 0 0 0-.656 1.805l3.53 2.927a.34.34 0 0 1 .105.37l-1.483 4.446a1.021 1.021 0 0 0 1.573 1.147l3.64-2.669a.34.34 0 0 1 .402 0l3.638 2.668a1.021 1.021 0 0 0 1.574-1.146l-1.483-4.449a.34.34 0 0 1 .106-.37l3.536-2.93a1.021 1.021 0 0 0 .295-1.132Z"/>
</svg>
