<svg xmlns="http://www.w3.org/2000/svg" viewBox="0 0 18 18" aria-hidden="true">
    <path d="M4.431 10.935 3.19 16.312a.832.832 0 0 0 1.274.88L9 14.169l4.538 3.025a.834.834 0 0 0 1.264-.922l-1.524-5.333 3.78-3.402a.833.833 0 0 0-.492-1.45l-4.75-.378-2.057-4.55a.832.832 0 0 0-1.518 0l-2.056 4.55-4.75.377A.833.833 0 0 0 .92 7.513l3.511 3.422ZM6.81 7.33a.832.832 0 0 0 .693-.488l1.5-3.317L10.5 6.842a.832.832 0 0 0 .694.488l3.31.263-2.726 2.453a.835.835 0 0 0-.244.849l1.044 3.654-3.113-2.076a.83.83 0 0 0-.925 0l-3.253 2.17.875-3.79a.833.833 0 0 0-.23-.783L3.4 7.602 6.81 7.33Z"/>
</svg>
