<svg xmlns="http://www.w3.org/2000/svg" fill="none" viewBox="0 0 24 24" aria-hidden="true">
    <path fill="currentColor" fill-rule="evenodd"
          d="M8.586 2.586A2 2 0 0 1 10 2h4a2 2 0 0 1 2 2v2h4a1 1 0 1 1 0 2h-.069l-.8 11.213A3 3 0 0 1 16.138 22H7.862a3 3 0 0 1-2.992-2.787L4.069 8H4a1 1 0 0 1 0-2h4V4a2 2 0 0 1 .586-1.414ZM6.074 8l.79 11.07a1 1 0 0 0 .998.93h8.276a1 1 0 0 0 .997-.929L17.927 8H6.074ZM14 6h-4V4h4v2Zm-4 4a1 1 0 0 1 1 1v6a1 1 0 1 1-2 0v-6a1 1 0 0 1 1-1Zm4 0a1 1 0 0 1 1 1v6a1 1 0 1 1-2 0v-6a1 1 0 0 1 1-1Z"
          clip-rule="evenodd"/>
</svg>
